<svg id="_x31__px" enable-background="new 0 0 24 24" height="512" viewBox="0 0 24 24" width="512" xmlns="http://www.w3.org/2000/svg"><path d="m2.5 19.02c-.276 0-.5-.224-.5-.5v-8.85c0-.276.224-.5.5-.5s.5.224.5.5v8.85c0 .276-.224.5-.5.5z"/><path d="m21.5 1.045c-.058 0-.114-.009-.166-.025h-13.644c-.276 0-.5-.224-.5-.5s.224-.5.5-.5h13.81c.276 0 .5.224.5.5s-.224.525-.5.525z"/><path d="m23.5 5.021h-5c-.276 0-.5-.224-.5-.5v-1.5c0-1.654 1.346-3 3-3s3 1.346 3 3v1.5c0 .276-.224.5-.5.5zm-4.5-1h4v-1c0-1.103-.897-2-2-2s-2 .897-2 2z"/><path d="m16 23.979h-13.5c-1.378 0-2.5-1.121-2.5-2.5v-2.959c0-.276.224-.5.5-.5h13c.276 0 .5.224.5.5v2.459c0 1.103.897 2 2 2s2-.897 2-2v-16.458c0-.276.224-.5.5-.5s.5.224.5.5v16.459c0 1.654-1.346 2.999-3 2.999zm-15-4.958v2.459c0 .827.673 1.5 1.5 1.5h11.266c-.476-.531-.766-1.232-.766-2v-1.959z"/><path d="m12.5 13c-.033 0-.065-.003-.098-.01l-3.655-.731c-.097-.02-.186-.066-.255-.137l-8.043-8.041c-.598-.599-.598-1.571 0-2.17l1.463-1.462c.598-.598 1.57-.598 2.169 0l8.042 8.042c.07.069.117.158.137.256l.731 3.655c.033.163-.019.333-.137.451-.095.095-.223.147-.354.147zm-3.409-1.692 2.771.555-.554-2.771-7.934-7.936c-.208-.207-.547-.207-.755 0l-1.463 1.462c-.208.208-.208.548 0 .756z"/></svg>